<?xml version="1.0" standalone="no"?><!DOCTYPE svg PUBLIC "-//W3C//DTD SVG 1.1//EN" "http://www.w3.org/Graphics/SVG/1.1/DTD/svg11.dtd"><svg t="1631934366202" class="icon" viewBox="0 0 1024 1024" version="1.1" xmlns="http://www.w3.org/2000/svg" p-id="27135" xmlns:xlink="http://www.w3.org/1999/xlink" width="200" height="200"><defs><style type="text/css"></style></defs><path d="M317.952 209.92H793.6c40.448 0 73.216 32.768 73.216 73.216v548.352c0 40.448-32.768 73.216-73.216 73.216H317.952c-40.448 0-73.216-32.768-73.216-73.216V283.136c0-40.448 32.768-73.216 73.216-73.216z" fill="#FFC851" p-id="27136"></path><path d="M478.208 374.784H471.04c-7.168-3.584-18.432-7.168-22.016-14.848-3.584-7.168-7.168-10.752-7.168-18.432V71.168h274.432V337.92c0 18.432-14.848 36.352-36.352 36.352-7.168 0-14.848-3.584-18.432-7.168L580.608 312.32 496.128 367.104c-3.584 3.584-10.752 7.68-17.92 7.68z m104.448-101.376c0-3.072 4.608-5.632 11.776-2.048l90.624 56.832V110.592H479.744v221.696l91.648-57.856c13.824-6.144 21.504-6.144 11.264-1.024z" fill="#333333" p-id="27137"></path><path d="M734.208 948.736H280.576c-98.816 0-175.616-76.8-175.616-175.616V246.784c0-98.816 76.8-175.616 175.616-175.616h457.216c95.232 0 172.032 76.8 172.032 175.616v530.432c0 94.72-76.8 171.52-175.616 171.52z m-453.632-839.68c-66.048 0-141.312 71.68-141.312 137.728v530.432c0 66.048 75.264 132.608 137.728 132.608h457.216c66.048 0 137.728-70.144 137.728-132.608V246.784c0-66.048-75.264-137.728-137.728-137.728H280.576z" fill="#333333" p-id="27138"></path><path d="M104.96 692.736h804.352v39.424H104.96v-39.424z" fill="#333333" p-id="27139"></path></svg>