<?xml version="1.0" standalone="no"?><!DOCTYPE svg PUBLIC "-//W3C//DTD SVG 1.1//EN" "http://www.w3.org/Graphics/SVG/1.1/DTD/svg11.dtd"><svg t="1631934392632" class="icon" viewBox="0 0 1024 1024" version="1.1" xmlns="http://www.w3.org/2000/svg" p-id="27591" xmlns:xlink="http://www.w3.org/1999/xlink" width="200" height="200"><defs><style type="text/css"></style></defs><path d="M696.785455 861.090909c-7.214545 3.956364-14.429091 7.447273-21.876364 10.705455a224.116364 224.116364 0 0 1-23.272727 9.774545l53.527272 53.527273c7.447273-3.490909 14.661818-6.981818 21.876364-10.938182s14.196364-7.447273 21.178182-11.636364z m193.163636-232.727273c-2.327273 7.912727-4.887273 15.592727-7.68 23.272728s-6.283636 15.592727-10.007273 23.272727h75.869091c2.792727-7.68 5.585455-15.592727 7.912727-23.272727s4.654545-15.592727 6.749091-23.272728zM628.363636 61.207273v72.843636a319.767273 319.767273 0 0 1 46.545455 17.687273V75.869091c-15.127273-6.050909-30.72-10.472727-46.545455-14.661818zM318.836364 88.436364c-7.447273 3.490909-14.661818 6.981818-21.876364 10.938181s-14.196364 7.447273-21.178182 11.636364L327.214545 162.909091c7.214545-3.956364 14.429091-7.447273 21.876364-10.705455a224.116364 224.116364 0 0 1 23.272727-9.774545z m605.090909 209.454545c-3.490909-7.214545-7.447273-14.196364-11.636364-21.178182L861.090909 327.214545c3.956364 7.214545 7.447273 14.429091 10.705455 21.876364a224.116364 224.116364 0 0 1 9.774545 23.272727l53.527273-53.527272a208.756364 208.756364 0 0 0-10.472727-21.876364zM372.363636 882.269091c-7.912727-3.025455-15.592727-6.283636-23.272727-10.007273v75.869091c7.68 2.792727 15.592727 5.585455 23.272727 7.912727s15.592727 4.654545 23.272728 6.749091v-72.843636c-7.912727-2.327273-15.592727-5.585455-23.272728-7.68zM151.738182 349.090909c-3.723636 7.68-6.981818 15.36-10.007273 23.272727s-5.352727 15.36-7.68 23.272728H61.207273c2.094545-7.68 4.189091-15.592727 6.749091-23.272728s5.12-15.592727 7.912727-23.272727zM162.909091 696.785455l-51.898182 51.432727c-4.189091-6.981818-8.145455-13.963636-11.636364-21.178182s-6.283636-14.429091-10.938181-21.876364L141.963636 651.636364a224.116364 224.116364 0 0 0 9.774546 23.272727c3.258182 7.447273 6.749091 14.661818 11.170909 21.876364z" fill="#666666" p-id="27592"></path><path d="M111.010909 748.218182A468.712727 468.712727 0 0 0 349.090909 948.130909V510.138182l-186.181818 186.181818zM628.363636 398.196364V61.207273A468.945455 468.945455 0 0 0 512 46.545455a462.196364 462.196364 0 0 0-193.163636 41.890909L628.363636 396.8zM327.214545 162.909091l-51.432727-51.898182A468.712727 468.712727 0 0 0 75.869091 349.090909h437.992727zM398.196364 395.636364H61.207273A468.945455 468.945455 0 0 0 46.545455 512a462.196364 462.196364 0 0 0 41.890909 193.163636l308.363636-308.363636zM395.636364 625.803636v336.989091a468.945455 468.945455 0 0 0 116.363636 14.661818 462.196364 462.196364 0 0 0 193.163636-41.890909L396.8 628.363636zM696.785455 861.090909l51.432727 51.432727A468.712727 468.712727 0 0 0 948.130909 674.909091H510.138182zM935.563636 318.836364L628.363636 628.363636l-1.396363 1.163637h335.825454A468.945455 468.945455 0 0 0 977.454545 512a462.196364 462.196364 0 0 0-41.890909-193.163636zM912.989091 275.781818A468.712727 468.712727 0 0 0 674.909091 75.869091v437.992727l186.181818-186.181818z" fill="#FFC963" p-id="27593"></path><path d="M962.792727 628.363636a455.447273 455.447273 0 0 0-26.996363-309.061818c-3.490909-7.447273-6.981818-14.661818-10.938182-21.876363 0 0-1.396364-2.327273-1.861818-3.49091l-3.723637-6.74909c-2.094545-3.723636-3.956364-7.447273-6.050909-10.938182A468.014545 468.014545 0 0 0 674.909091 76.567273c-4.189091-1.629091-8.843636-2.56-13.032727-4.189091l-23.272728-6.981818c-3.723636 0-7.447273-2.56-11.403636-3.490909a455.447273 455.447273 0 0 0-307.898182 26.996363c-7.447273 3.490909-14.661818 6.981818-21.876363 10.938182l-3.49091 1.861818-6.74909 3.723637-10.938182 6.050909A468.014545 468.014545 0 0 0 76.567273 349.090909c-2.792727 7.68-5.585455 15.592727-7.912728 23.272727v2.094546c-2.094545 6.981818-3.956364 13.730909-5.818181 20.48a455.447273 455.447273 0 0 0 26.065454 309.76c3.490909 7.447273 6.981818 14.661818 10.938182 21.876363a25.367273 25.367273 0 0 0 1.861818 3.49091l3.723637 6.981818 6.050909 10.705454A468.014545 468.014545 0 0 0 349.090909 947.432727c7.68 2.792727 15.592727 5.585455 23.272727 7.912728h2.327273l20.247273 5.818181a455.447273 455.447273 0 0 0 309.061818-26.996363c7.447273-3.490909 14.661818-6.981818 21.876364-10.938182l3.258181-1.861818a71.447273 71.447273 0 0 0 7.214546-3.956364l10.705454-5.818182A468.014545 468.014545 0 0 0 947.432727 674.909091c2.792727-7.68 5.585455-15.592727 7.912728-23.272727v-2.327273c3.723636-7.447273 5.585455-14.196364 7.447272-20.945455zM907.636364 512a400.058182 400.058182 0 0 1-17.454546 116.363636H625.803636 628.363636l253.44-256A391.214545 391.214545 0 0 1 907.636364 512z m-313.250909 82.385455A116.363636 116.363636 0 1 1 628.363636 512a116.363636 116.363636 0 0 1-33.978181 82.385455zM861.090909 327.214545l-186.181818 186.181819V151.970909a395.636364 395.636364 0 0 1 186.181818 175.243636zM512 116.363636a400.058182 400.058182 0 0 1 116.363636 17.454546v264.378182-1.396364L372.363636 142.196364A391.214545 391.214545 0 0 1 512 116.363636z m-184.785455 46.545455l186.181819 186.181818H151.970909a395.636364 395.636364 0 0 1 175.243636-186.181818zM116.363636 512a400.058182 400.058182 0 0 1 17.454546-116.363636h264.378182l-1.396364 1.163636L142.196364 651.636364A391.214545 391.214545 0 0 1 116.363636 512z m46.545455 184.785455l186.181818-186.181819v361.425455a395.636364 395.636364 0 0 1-186.181818-175.243636zM512 907.636364a400.058182 400.058182 0 0 1-116.363636-17.454546V625.803636l1.163636 1.396364L651.636364 881.803636A391.214545 391.214545 0 0 1 512 907.636364z m184.785455-46.545455l-186.181819-186.181818h361.425455a395.636364 395.636364 0 0 1-175.243636 186.181818z" fill="#333333" p-id="27594"></path></svg>