<?xml version="1.0" standalone="no"?><!DOCTYPE svg PUBLIC "-//W3C//DTD SVG 1.1//EN" "http://www.w3.org/Graphics/SVG/1.1/DTD/svg11.dtd"><svg t="1631865512502" class="icon" viewBox="0 0 1024 1024" version="1.1" xmlns="http://www.w3.org/2000/svg" p-id="9496" xmlns:xlink="http://www.w3.org/1999/xlink" width="200" height="200"><defs><style type="text/css"></style></defs><path d="M513 65.2c-247.4 0-448 200.6-448 448s200.6 448 448 448 448-200.6 448-448-200.6-448-448-448z m105.8 198c22 9.4 42.6 21.7 62.1 37.1 7.9 6.3 15.4 12.9 22.8 20.3 17 16.7 31 35.7 42.8 56 2.8 4.9 5.8 9.9 8.3 15.1l-136 136.1c1.4-8.3 0-264.6 0-264.6z m-136-19.5c9.9-1.1 20.3-1.6 30.5-1.6 24.2 0 47.6 3 70.1 8.7 5.8 1.9 11 3.6 16.5 5.2v192.3c-4.7-6.8-187.1-187.1-187.1-187.1 22.2-8.7 45.5-14.8 70-17.5zM301.1 344.8c6.3-7.7 12.9-15.4 20.3-22.8 17.1-17.3 35.7-31.3 55.8-42.8 4.9-2.8 10.2-5.5 15.1-8l136.3 135.7c-8-1.4-264.6 0-264.6 0 9.4-22 21.7-42.6 37.1-62.1z m-56.6 198.3c-1.1-9.9-1.6-20.3-1.6-30.5 0-24.1 3.1-47.5 9.1-69.8 1.4-5.8 3.3-11 5.2-16.8h191.7c-6.6 4.7-186.8 187.1-186.8 187.1-8.8-22.2-14.8-45.5-17.6-70zM407 762.4c-22-9.4-42.6-21.7-62.1-37.1-7.9-6.3-15.4-12.9-22.8-20.3-17.3-17.4-31.3-36-42.8-56.1-2.8-5.2-5.8-10.2-8.3-15.4l136-136c-1.4 8 0 264.3 0 264.9z m136 20.4c-9.9 1.1-20.3 1.6-30.5 1.6-24.1 0-47.5-3.3-69.8-9.4-5.2-1.9-11-3.6-16.5-5.2V577.5c4.7 6.6 186.8 187.1 186.8 187.7-22.5 8.8-46.1 14.8-70 17.6z m180.5-100.6c-6.3 7.9-12.9 15.4-20.3 22.8-17.4 17.3-36 31.3-56.1 42.8-5.2 2.8-10.2 5.8-15.4 8.3l-136-136c8.3 1.4 264.9 0 264.9 0-9.4 21.9-21.7 42.5-37.1 62.1z m50.2-98.7c-1.9 5.8-3.6 11-5.2 16.5H576.2c6.8-4.7 187.1-187.1 187.1-187.1 9.1 22 14.9 45.6 18.2 70.4 1.1 9.9 1.6 20.3 1.6 30.5 0 24.1-3.3 47.5-9.4 69.7z" p-id="9497"></path></svg>