<?xml version="1.0" standalone="no"?><!DOCTYPE svg PUBLIC "-//W3C//DTD SVG 1.1//EN" "http://www.w3.org/Graphics/SVG/1.1/DTD/svg11.dtd"><svg t="1631934280908" class="icon" viewBox="0 0 1024 1024" version="1.1" xmlns="http://www.w3.org/2000/svg" p-id="26296" xmlns:xlink="http://www.w3.org/1999/xlink" width="200" height="200"><defs><style type="text/css"></style></defs><path d="M670.457436 191.186051h43.769436v129.667282l145.591795 151.04a26.25641 26.25641 0 0 1-18.891488 44.478359h-55.348512V851.757949a39.384615 39.384615 0 0 1-39.384616 39.384615H603.766154V646.642872a65.641026 65.641026 0 0 0-65.641026-65.641026h-58.394256a65.641026 65.641026 0 0 0-65.641026 65.641026v234.994872H264.310154a39.384615 39.384615 0 0 1-39.384616-39.384616v-317.177436H170.666667a26.25641 26.25641 0 0 1-18.944-44.438974l319.527384-333.193846a52.512821 52.512821 0 0 1 75.697231-0.091898l72.55959 73.977436" fill="#FA5551" p-id="26297"></path></svg>