<?xml version="1.0" standalone="no"?><!DOCTYPE svg PUBLIC "-//W3C//DTD SVG 1.1//EN" "http://www.w3.org/Graphics/SVG/1.1/DTD/svg11.dtd"><svg t="1631865156049" class="icon" viewBox="0 0 1024 1024" version="1.1" xmlns="http://www.w3.org/2000/svg" p-id="7745" xmlns:xlink="http://www.w3.org/1999/xlink" width="200" height="200"><defs><style type="text/css"></style></defs><path d="M873.9 510.9L523.1 142.1c-3-3.2-7.1-4.8-11.2-4.8s-8.1 1.6-11.2 4.8L149.9 510.9c-9.4 9.8-2.4 26.1 11.2 26.1h75.7v307.5c0 8.5 6.9 15.4 15.4 15.4h190.3c8.5 0 15.4-6.9 15.4-15.4V660.3c0-3.5 2.9-6.4 6.4-6.4h99c3.5 0 6.4 2.9 6.4 6.4v184.2c0 8.5 6.9 15.4 15.4 15.4h188.4c8.5 0 15.4-6.9 15.4-15.4V537h73.6c13.8 0 20.8-16.2 11.4-26.1zM725.1 473v323h-91.3V660.3c0-38.8-31.6-70.4-70.4-70.4h-99c-38.8 0-70.4 31.6-70.4 70.4V796h-93.2V473h-26.5l237.6-249.8L749.6 473h-24.5zM754.1 345.8h64v-96.1c0-26.3-21.4-47.7-47.7-47.7h-93.9v64h77.6v79.8z" fill="#231815" p-id="7746"></path></svg>