<?xml version="1.0" standalone="no"?><!DOCTYPE svg PUBLIC "-//W3C//DTD SVG 1.1//EN" "http://www.w3.org/Graphics/SVG/1.1/DTD/svg11.dtd"><svg t="1631865525322" class="icon" viewBox="0 0 1024 1024" version="1.1" xmlns="http://www.w3.org/2000/svg" p-id="10501" xmlns:xlink="http://www.w3.org/1999/xlink" width="200" height="200"><defs><style type="text/css"></style></defs><path d="M0 0m102.4 0l819.2 0q102.4 0 102.4 102.4l0 819.2q0 102.4-102.4 102.4l-819.2 0q-102.4 0-102.4-102.4l0-819.2q0-102.4 102.4-102.4Z" fill="#4070FF" p-id="10502"></path><path d="M755.2 704v71.9232a6.4 6.4 0 0 1-11.3152 4.096l-15.7696-18.9184a6.4 6.4 0 0 0-9.8304 0l-15.7696 18.9184a6.4 6.4 0 0 1-11.3152-4.096V704h64z" fill="#9FB7FF" p-id="10503"></path><path d="M358.4 294.4c47.0272 0 90.4448 3.5968 130.2784 10.8032a12.8 12.8 0 0 1 10.5216 12.5952v396.4032a12.8 12.8 0 0 1-14.976 12.608C445.6192 720.1408 403.6736 716.8 358.4 716.8c-34.4576 0-66.9952 1.9328-97.5872 5.7984A38.4 38.4 0 0 1 217.6 684.5056V339.584a38.4 38.4 0 0 1 32.9856-38.016c33.536-4.7744 69.4784-7.168 107.8144-7.168z m307.2 0c38.336 0 74.2656 2.3936 107.8144 7.168A38.4 38.4 0 0 1 806.4 339.584v344.9216a38.4 38.4 0 0 1-43.2128 38.0928C732.5952 718.7328 700.0576 716.8 665.6 716.8c-45.2736 0-87.2192 3.328-125.824 10.0096a12.8 12.8 0 0 1-14.976-12.608v-396.416a12.8 12.8 0 0 1 10.5216-12.5824C575.1552 297.984 618.5728 294.4 665.6 294.4zM358.4 576c-28.288 0-56.576 3.84-84.864 11.4816a6.4 6.4 0 0 0-4.736 6.1824v12.352a6.4 6.4 0 0 0 8.0128 6.1952C304 605.1328 331.2128 601.6 358.4 601.6c27.2 0 54.4 3.5328 81.5872 10.624a6.4 6.4 0 0 0 8.0128-6.208v-12.352a6.4 6.4 0 0 0-4.736-6.1824A323.648 323.648 0 0 0 358.4 576z m307.2 0c-28.288 0-56.576 3.84-84.864 11.4816a6.4 6.4 0 0 0-4.736 6.1824v12.352a6.4 6.4 0 0 0 8.0128 6.1952C611.2 605.1328 638.4128 601.6 665.6 601.6c27.2 0 54.4 3.5328 81.5872 10.624a6.4 6.4 0 0 0 8.0128-6.208v-12.352a6.4 6.4 0 0 0-4.736-6.1824A323.648 323.648 0 0 0 665.6 576z m-307.2-89.6c-28.288 0-56.576 3.84-84.864 11.4816a6.4 6.4 0 0 0-4.736 6.1824v12.352a6.4 6.4 0 0 0 8.0128 6.1952C304 515.5328 331.2128 512 358.4 512c27.2 0 54.4 3.5328 81.5872 10.624a6.4 6.4 0 0 0 8.0128-6.208v-12.352a6.4 6.4 0 0 0-4.736-6.1824A323.648 323.648 0 0 0 358.4 486.4z m307.2 0c-28.288 0-56.576 3.84-84.864 11.4816a6.4 6.4 0 0 0-4.736 6.1824v12.352a6.4 6.4 0 0 0 8.0128 6.1952C611.2 515.5328 638.4128 512 665.6 512c27.2 0 54.4 3.5328 81.5872 10.624a6.4 6.4 0 0 0 8.0128-6.208v-12.352a6.4 6.4 0 0 0-4.736-6.1824A323.648 323.648 0 0 0 665.6 486.4z m-307.2-89.6c-28.288 0-56.576 3.84-84.864 11.4816a6.4 6.4 0 0 0-4.736 6.1824v12.352a6.4 6.4 0 0 0 8.0128 6.1952C304 425.9328 331.2128 422.4 358.4 422.4c27.2 0 54.4 3.5328 81.5872 10.624a6.4 6.4 0 0 0 8.0128-6.208v-12.352a6.4 6.4 0 0 0-4.736-6.1824A323.648 323.648 0 0 0 358.4 396.8z m307.2 0c-28.288 0-56.576 3.84-84.864 11.4816a6.4 6.4 0 0 0-4.736 6.1824v12.352a6.4 6.4 0 0 0 8.0128 6.1952C611.2 425.9328 638.4128 422.4 665.6 422.4c27.2 0 54.4 3.5328 81.5872 10.624a6.4 6.4 0 0 0 8.0128-6.208v-12.352a6.4 6.4 0 0 0-4.736-6.1824A323.648 323.648 0 0 0 665.6 396.8z" fill="#FFFFFF" p-id="10504"></path></svg>