<?xml version="1.0" standalone="no"?><!DOCTYPE svg PUBLIC "-//W3C//DTD SVG 1.1//EN" "http://www.w3.org/Graphics/SVG/1.1/DTD/svg11.dtd"><svg t="1631934437143" class="icon" viewBox="0 0 1024 1024" version="1.1" xmlns="http://www.w3.org/2000/svg" p-id="29872" xmlns:xlink="http://www.w3.org/1999/xlink" width="200" height="200"><defs><style type="text/css"></style></defs><path d="M581.818182 167.563636l111.709091-18.618181c72.145455-11.636364 148.945455-11.636364 221.090909 0l32.581818 4.654545c44.218182 6.981818 76.8 46.545455 76.8 90.763636v670.254546c0 51.2-41.890909 90.763636-90.763636 90.763636-4.654545 0-9.309091 0-16.290909-2.327273-69.818182-11.636364-141.963636-11.636364-214.109091-2.327272L581.818182 1024l-97.745455-16.290909c-76.8-13.963636-153.6-13.963636-228.072727-2.327273h-6.981818c-51.2 9.309091-97.745455-25.6-107.054546-76.8-2.327273-4.654545-2.327273-9.309091-2.327272-13.963636V246.690909c0-46.545455 32.581818-83.781818 76.8-90.763636l32.581818-4.654546c72.145455-11.636364 148.945455-11.636364 221.090909 0l111.709091 16.290909z" fill="#FFE350" p-id="29873"></path><path d="M512 1000.727273l-107.054545-18.618182c-69.818182-11.636364-141.963636-11.636364-214.109091-2.327273h-6.981819c-37.236364 6.981818-74.472727-2.327273-104.727272-25.6-30.254545-20.945455-51.2-53.527273-55.854546-90.763636V176.872727c0-67.490909 48.872727-125.672727 116.363637-137.309091l32.581818-4.654545c79.127273-13.963636 158.254545-13.963636 237.381818 0l102.4 16.290909 102.4-16.290909c79.127273-13.963636 158.254545-13.963636 237.381818 0l32.581818 4.654545c67.490909 11.636364 116.363636 69.818182 116.363637 137.309091v670.254546c0 76.8-62.836364 137.309091-137.309091 137.309091-6.981818 0-16.290909 0-23.272727-2.327273-65.163636-11.636364-132.654545-11.636364-197.818182 0L512 1000.727273z m-216.436364-121.018182c41.890909 0 83.781818 4.654545 125.672728 11.636364l90.763636 16.290909 114.036364-18.618182c76.8-11.636364 153.6-11.636364 228.072727 2.327273 27.927273 4.654545 51.2-16.290909 51.2-44.218182V176.872727c0-23.272727-16.290909-41.890909-39.563636-46.545454l-32.581819-4.654546a605.090909 605.090909 0 0 0-204.8 0l-116.363636 18.618182-118.690909-18.618182a605.090909 605.090909 0 0 0-204.8 0l-32.581818 4.654546c-23.272727 4.654545-39.563636 23.272727-39.563637 46.545454v674.909091c2.327273 11.636364 9.309091 23.272727 18.618182 30.254546 9.309091 6.981818 23.272727 9.309091 34.909091 9.309091h6.981818c39.563636-6.981818 79.127273-11.636364 118.690909-11.636364z" fill="#3E393D" p-id="29874"></path><path d="M535.272727 744.727273c-25.6 0-46.545455-20.945455-46.545454-46.545455V325.818182c0-25.6 20.945455-46.545455 46.545454-46.545455s46.545455 20.945455 46.545455 46.545455v372.363636c0 25.6-20.945455 46.545455-46.545455 46.545455z" fill="#3E393D" p-id="29875"></path></svg>